<svg width="105" height="105" viewBox="0 0 105 105" fill="none" xmlns="http://www.w3.org/2000/svg">
<path d="M50.3125 56.875C51.5206 56.875 52.5 55.8956 52.5 54.6875C52.5 53.4794 51.5206 52.5 50.3125 52.5C49.1044 52.5 48.125 53.4794 48.125 54.6875C48.125 55.8956 49.1044 56.875 50.3125 56.875Z" fill="white"/>
<path d="M52.0625 52.9375L71.8112 33.1888M71.8112 33.1888C73.4523 31.5482 74.3745 29.323 74.375 27.0025V21.1225C74.3755 18.8021 75.2977 16.5768 76.9388 14.9363L81.8125 10.0625C82.6303 9.2609 83.7298 8.81189 84.875 8.81189C86.0202 8.81189 87.1197 9.2609 87.9375 10.0625L94.9375 17.0625C95.7391 17.8803 96.1881 18.9798 96.1881 20.125C96.1881 21.2702 95.7391 22.3697 94.9375 23.1875L90.0638 28.0613C88.4232 29.7023 86.198 30.6245 83.8775 30.625H77.9975C75.677 30.6255 73.4518 31.5477 71.8112 33.1888ZM26.25 70L35 78.75M35.875 43.3125C38.0625 38.5 42.875 35 48.125 35C60.375 35 70 44.625 70 56.875C70 62.125 66.5 66.9375 61.6875 69.125L57.75 70.875C56.2119 71.546 54.8992 72.6452 53.9684 74.0414C53.0375 75.4377 52.5278 77.0722 52.5 78.75C52.5 83.3913 50.6563 87.8425 47.3744 91.1244C44.0925 94.4063 39.6413 96.25 35 96.25C20.5625 96.25 8.75 84.4375 8.75 70C8.75 65.3587 10.5937 60.9075 13.8756 57.6256C17.1575 54.3438 21.6087 52.5 26.25 52.5C27.9279 52.4722 29.5623 51.9625 30.9586 51.0317C32.3549 50.1008 33.454 48.7881 34.125 47.25L35.875 43.3125ZM52.5 54.6875C52.5 55.8956 51.5206 56.875 50.3125 56.875C49.1044 56.875 48.125 55.8956 48.125 54.6875C48.125 53.4794 49.1044 52.5 50.3125 52.5C51.5206 52.5 52.5 53.4794 52.5 54.6875Z" stroke="white" stroke-width="2" stroke-linecap="round" stroke-linejoin="round"/>
</svg>
