<svg width="85" height="88" viewBox="0 0 85 88" fill="none" xmlns="http://www.w3.org/2000/svg">
<path d="M79.6875 0H5.3125C2.37602 0 0 2.45988 0 5.5V82.5C0 85.5401 2.37602 88 5.3125 88H79.6875C82.624 88 85 85.5401 85 82.5V5.5C85 2.45988 82.624 0 79.6875 0ZM19.9219 85.25H5.3125C3.84625 85.25 2.65625 84.018 2.65625 82.5V5.5C2.65625 3.982 3.50758 2.75 5.3125 2.75H14.6094V56.375C14.6094 57.1354 15.203 57.75 15.9375 57.75H19.9219V85.25ZM41.1719 85.25H22.5781V57.75H26.5625C27.297 57.75 27.8906 57.1354 27.8906 56.375V2.75H35.8594V56.375C35.8594 57.1354 36.453 57.75 37.1875 57.75H41.1719V85.25ZM62.4219 85.25H43.8281V57.75H47.8125C48.547 57.75 49.1406 57.1354 49.1406 56.375V2.75H57.1094V56.375C57.1094 57.1354 57.703 57.75 58.4375 57.75H62.4219V85.25ZM82.3438 82.5C82.3438 84.018 81.1537 85.25 79.6875 85.25H65.0781V57.75H69.0625C69.797 57.75 70.3906 57.1354 70.3906 56.375V2.75H79.6875C81.0369 2.75 82.3438 3.982 82.3438 5.5V82.5Z" fill="white"/>
</svg>
