<svg width="73" height="73" viewBox="0 0 73 73" fill="none" xmlns="http://www.w3.org/2000/svg">
<path d="M6.08333 39.5417C7.69673 39.5417 9.24405 38.9008 10.3849 37.7599C11.5257 36.6191 12.1667 35.0717 12.1667 33.4583V21.2917C12.1667 19.6783 12.8076 18.131 13.9484 16.9901C15.0893 15.8493 16.6366 15.2083 18.25 15.2083C19.8634 15.2083 21.4107 15.8493 22.5516 16.9901C23.6924 18.131 24.3333 19.6783 24.3333 21.2917V60.8333C24.3333 62.4467 24.9742 63.9941 26.1151 65.1349C27.2559 66.2758 28.8033 66.9167 30.4167 66.9167C32.0301 66.9167 33.5774 66.2758 34.7182 65.1349C35.8591 63.9941 36.5 62.4467 36.5 60.8333V12.1667C36.5 10.5533 37.1409 9.00596 38.2818 7.86511C39.4226 6.72426 40.9699 6.08334 42.5833 6.08334C44.1967 6.08334 45.744 6.72426 46.8849 7.86511C48.0257 9.00596 48.6667 10.5533 48.6667 12.1667V51.7083C48.6667 53.3217 49.3076 54.8691 50.4484 56.0099C51.5893 57.1508 53.1366 57.7917 54.75 57.7917C56.3634 57.7917 57.9107 57.1508 59.0516 56.0099C60.1924 54.8691 60.8333 53.3217 60.8333 51.7083V39.5417C60.8333 37.9283 61.4742 36.381 62.6151 35.2401C63.7559 34.0993 65.3033 33.4583 66.9167 33.4583" stroke="white" stroke-width="2" stroke-linecap="round" stroke-linejoin="round"/>
</svg>
