<svg width="82" height="82" viewBox="0 0 82 82" fill="none" xmlns="http://www.w3.org/2000/svg">
<path d="M64.9167 34.1667V41C64.9167 47.3431 62.3969 53.4264 57.9116 57.9116C53.4264 62.3969 47.3431 64.9167 41 64.9167M41 64.9167C34.6569 64.9167 28.5736 62.3969 24.0884 57.9116C19.6031 53.4264 17.0833 47.3431 17.0833 41V34.1667M41 64.9167V75.1667M41 6.83334C38.2815 6.83334 35.6744 7.91325 33.7521 9.8355C31.8299 11.7577 30.75 14.3649 30.75 17.0833V41C30.75 43.7185 31.8299 46.3256 33.7521 48.2479C35.6744 50.1701 38.2815 51.25 41 51.25C43.7185 51.25 46.3256 50.1701 48.2478 48.2479C50.1701 46.3256 51.25 43.7185 51.25 41V17.0833C51.25 14.3649 50.1701 11.7577 48.2478 9.8355C46.3256 7.91325 43.7185 6.83334 41 6.83334Z" stroke="white" stroke-width="2" stroke-linecap="round" stroke-linejoin="round"/>
</svg>
